<?xml version="1.0" encoding="UTF-8" standalone="no"?>
<svg
   xmlns:dc="http://purl.org/dc/elements/1.1/"
   xmlns:cc="http://creativecommons.org/ns#"
   xmlns:rdf="http://www.w3.org/1999/02/22-rdf-syntax-ns#"
   xmlns:svg="http://www.w3.org/2000/svg"
   xmlns="http://www.w3.org/2000/svg"
   width="1080"
   height="1080"
   viewBox="0 0 285.75001 285.75001"
   version="1.1"
   id="svg8">
  <defs
     id="defs2">
    <marker
       style="overflow:visible"
       id="Arrow1Mend"
       refX="0"
       refY="0"
       orient="auto">
      <path
         transform="matrix(-0.4,0,0,-0.4,-4,0)"
         style="fill:#fa8f00;fill-opacity:1;fill-rule:evenodd;stroke:#fa8f00;stroke-width:1.00000003pt;stroke-opacity:1"
         d="M 0,0 5,-5 -12.5,0 5,5 Z"
         id="path5322" />
    </marker>
    <marker
       style="overflow:visible"
       id="Arrow1Mend-4"
       refX="0"
       refY="0"
       orient="auto">
      <path
         transform="matrix(-0.4,0,0,-0.4,-4,0)"
         style="fill:#fa8f00;fill-opacity:1;fill-rule:evenodd;stroke:#fa8f00;stroke-width:1.00000003pt;stroke-opacity:1"
         d="M 0,0 5,-5 -12.5,0 5,5 Z"
         id="path5322-5" />
    </marker>
  </defs>
  <metadata
     id="metadata5">
    <rdf:RDF>
      <cc:Work
         rdf:about="">
        <dc:format>image/svg+xml</dc:format>
        <dc:type
           rdf:resource="http://purl.org/dc/dcmitype/StillImage" />
        <dc:title></dc:title>
      </cc:Work>
    </rdf:RDF>
  </metadata>
  <rect
     style="fill:#c9ebfb;fill-opacity:1;stroke:none;stroke-width:18.2091732;stroke-linecap:round;stroke-miterlimit:4;stroke-dasharray:none;stroke-opacity:1;paint-order:markers stroke fill"
     id="rect7624"
     width="285.75"
     height="285.75"
     x="0.0084436871"
     y="-0.0035707499" />
  <g
     id="g152"
     transform="matrix(1.4552084,0,0,1.4552084,353.40658,-315.79146)" />
  <g
     id="g154"
     transform="matrix(1.4552084,0,0,1.4552084,353.40658,-315.79146)" />
  <g
     id="g156"
     transform="matrix(1.4552084,0,0,1.4552084,353.40658,-315.79146)" />
  <g
     id="g158"
     transform="matrix(1.4552084,0,0,1.4552084,353.40658,-315.79146)" />
  <g
     id="g160"
     transform="matrix(1.4552084,0,0,1.4552084,353.40658,-315.79146)" />
  <g
     id="g162"
     transform="matrix(1.4552084,0,0,1.4552084,353.40658,-315.79146)" />
  <g
     id="g164"
     transform="matrix(1.4552084,0,0,1.4552084,353.40658,-315.79146)" />
  <g
     id="g166"
     transform="matrix(1.4552084,0,0,1.4552084,353.40658,-315.79146)" />
  <g
     id="g168"
     transform="matrix(1.4552084,0,0,1.4552084,353.40658,-315.79146)" />
  <g
     id="g170"
     transform="matrix(1.4552084,0,0,1.4552084,353.40658,-315.79146)" />
  <g
     id="g172"
     transform="matrix(1.4552084,0,0,1.4552084,353.40658,-315.79146)" />
  <g
     id="g174"
     transform="matrix(1.4552084,0,0,1.4552084,353.40658,-315.79146)" />
  <g
     id="g176"
     transform="matrix(1.4552084,0,0,1.4552084,353.40658,-315.79146)" />
  <g
     id="g178"
     transform="matrix(1.4552084,0,0,1.4552084,353.40658,-315.79146)" />
  <g
     id="g180"
     transform="matrix(1.4552084,0,0,1.4552084,353.40658,-315.79146)" />
  <flowRoot
     style="font-style:normal;font-variant:normal;font-weight:500;font-stretch:normal;font-size:40px;line-height:1.25;font-family:Roboto;-inkscape-font-specification:'Roboto Medium';letter-spacing:0px;word-spacing:0px;fill:#000000;fill-opacity:1;stroke:none"
     id="flowRoot1041"
     xml:space="preserve"
     transform="matrix(1.4552084,0,0,1.4552084,353.40658,-315.79146)"><flowRegion
       id="flowRegion1043"><rect
         y="550.21259"
         x="1147.9391"
         height="40.43428"
         width="3.9448078"
         id="rect1045" /></flowRegion><flowPara
       id="flowPara1047" /></flowRoot>  <g
     style="fill:#294270;fill-opacity:1"
     id="g1160"
     transform="matrix(0.48683334,0,0,0.48683334,17.763167,19.157038)">
    <g
       style="fill:#294270;fill-opacity:1"
       id="g1158">
      <polygon
         style="fill:#294270;fill-opacity:1"
         id="polygon1156"
         points="139.3,205.943 26.8,140.991 26.8,371.008 139.3,306.055 " />
    </g>
  </g>
  <g
     style="fill:#294270;fill-opacity:1"
     id="g1166"
     transform="matrix(0.48683334,0,0,0.48683334,17.763167,19.157038)">
    <g
       style="fill:#294270;fill-opacity:1"
       id="g1164">
      <polygon
         style="fill:#294270;fill-opacity:1"
         id="polygon1162"
         points="241,264.66 169.3,223.264 169.3,306.056 241,347.452 " />
    </g>
  </g>
  <g
     style="fill:#294270;fill-opacity:1"
     id="g1172"
     transform="matrix(0.48683334,0,0,0.48683334,17.763167,19.157038)">
    <g
       style="fill:#294270;fill-opacity:1"
       id="g1170">
      <polygon
         style="fill:#294270;fill-opacity:1"
         id="polygon1168"
         points="241,382.093 154.299,332.036 41.799,396.989 241,512 " />
    </g>
  </g>
  <g
     style="fill:#294270;fill-opacity:1"
     id="g1178"
     transform="matrix(0.48683334,0,0,0.48683334,17.763167,19.157038)">
    <g
       style="fill:#294270;fill-opacity:1"
       id="g1176">
      <polygon
         style="fill:#294270;fill-opacity:1"
         id="polygon1174"
         points="342.7,223.264 271,264.66 271,347.452 342.7,306.056 " />
    </g>
  </g>
  <g
     style="fill:#294270;fill-opacity:1"
     id="g1184"
     transform="matrix(0.48683334,0,0,0.48683334,17.763167,19.157038)">
    <g
       style="fill:#294270;fill-opacity:1"
       id="g1182">
      <polygon
         style="fill:#294270;fill-opacity:1"
         id="polygon1180"
         points="485.2,140.991 372.7,205.943 372.7,306.055 485.2,371.008 " />
    </g>
  </g>
  <g
     style="fill:#294270;fill-opacity:1"
     id="g1190"
     transform="matrix(0.48683334,0,0,0.48683334,17.763167,19.157038)">
    <g
       style="fill:#294270;fill-opacity:1"
       id="g1188">
      <polygon
         style="fill:#294270;fill-opacity:1"
         id="polygon1186"
         points="470.201,396.989 357.7,332.036 271,382.093 271,512 " />
    </g>
  </g>
  <g
     style="fill:#294270;fill-opacity:1"
     id="g1196"
     transform="matrix(0.48683334,0,0,0.48683334,17.763167,19.157038)">
    <g
       style="fill:#294270;fill-opacity:1"
       id="g1194">
      <polygon
         style="fill:#294270;fill-opacity:1"
         id="polygon1192"
         points="470.2,115.011 271,0 271,129.907 357.7,179.963 " />
    </g>
  </g>
  <g
     style="fill:#294270;fill-opacity:1"
     id="g1202"
     transform="matrix(0.48683334,0,0,0.48683334,17.763167,19.157038)">
    <g
       style="fill:#294270;fill-opacity:1"
       id="g1200">
      <polygon
         style="fill:#294270;fill-opacity:1"
         id="polygon1198"
         points="241,0 41.8,115.011 154.3,179.963 241,129.907 " />
    </g>
  </g>
  <g
     style="fill:#294270;fill-opacity:1"
     id="g1208"
     transform="matrix(0.48683334,0,0,0.48683334,17.763167,19.157038)">
    <g
       style="fill:#294270;fill-opacity:1"
       id="g1206">
      <polygon
         style="fill:#294270;fill-opacity:1"
         id="polygon1204"
         points="327.7,197.284 256,155.888 184.3,197.284 256,238.68 " />
    </g>
  </g>
  <g
     id="g1210"
     transform="matrix(0.48683334,0,0,0.48683334,17.763167,19.157038)" />
  <g
     id="g1212"
     transform="matrix(0.48683334,0,0,0.48683334,17.763167,19.157038)" />
  <g
     id="g1214"
     transform="matrix(0.48683334,0,0,0.48683334,17.763167,19.157038)" />
  <g
     id="g1216"
     transform="matrix(0.48683334,0,0,0.48683334,17.763167,19.157038)" />
  <g
     id="g1218"
     transform="matrix(0.48683334,0,0,0.48683334,17.763167,19.157038)" />
  <g
     id="g1220"
     transform="matrix(0.48683334,0,0,0.48683334,17.763167,19.157038)" />
  <g
     id="g1222"
     transform="matrix(0.48683334,0,0,0.48683334,17.763167,19.157038)" />
  <g
     id="g1224"
     transform="matrix(0.48683334,0,0,0.48683334,17.763167,19.157038)" />
  <g
     id="g1226"
     transform="matrix(0.48683334,0,0,0.48683334,17.763167,19.157038)" />
  <g
     id="g1228"
     transform="matrix(0.48683334,0,0,0.48683334,17.763167,19.157038)" />
  <g
     id="g1230"
     transform="matrix(0.48683334,0,0,0.48683334,17.763167,19.157038)" />
  <g
     id="g1232"
     transform="matrix(0.48683334,0,0,0.48683334,17.763167,19.157038)" />
  <g
     id="g1234"
     transform="matrix(0.48683334,0,0,0.48683334,17.763167,19.157038)" />
  <g
     id="g1236"
     transform="matrix(0.48683334,0,0,0.48683334,17.763167,19.157038)" />
  <g
     id="g1238"
     transform="matrix(0.48683334,0,0,0.48683334,17.763167,19.157038)" />
</svg>
